<svg xmlns="http://www.w3.org/2000/svg" viewBox="0 0 19.75 16.86"><defs><style>.cls-1{fill:#1b1a17;}</style></defs><g id="Слой_2" data-name="Слой 2"><g id="Слой_1-2" data-name="Слой 1"><path class="cls-1" d="M19.34,5.15A5.13,5.13,0,0,0,14.2.38,5.23,5.23,0,0,0,9.82,2.66,5,5,0,0,0,5.55.38,5.14,5.14,0,0,0,.41,5.15,4.55,4.55,0,0,0,.57,7a7.59,7.59,0,0,0,2.63,4l6.62,5.45,6.73-5.45a7.59,7.59,0,0,0,2.63-4A4.16,4.16,0,0,0,19.34,5.15Zm-.87,1.66a7,7,0,0,1-2.41,3.63l-6.24,5-6.13-5A7,7,0,0,1,1.28,6.81a3.87,3.87,0,0,1-.15-1.56v0A4.47,4.47,0,0,1,5.55,1,4.28,4.28,0,0,1,9.48,3.52l.34.73.34-.73A4.42,4.42,0,0,1,14.2,1a4.47,4.47,0,0,1,4.42,4.21A3.87,3.87,0,0,1,18.47,6.81Z"/><path class="cls-1" d="M9.82,16.86,3,11.22A8,8,0,0,1,.21,7.05a4.8,4.8,0,0,1-.17-2A5.51,5.51,0,0,1,5.55,0,5.46,5.46,0,0,1,9.83,2,5.63,5.63,0,0,1,14.2,0a5.53,5.53,0,0,1,5.52,5.1,5.1,5.1,0,0,1-.17,2,8.08,8.08,0,0,1-2.76,4.17ZM5.55,1.41a4.09,4.09,0,0,0-4,3.84,3.55,3.55,0,0,0,.13,1.46,6.58,6.58,0,0,0,2.29,3.44L9.82,15l6-4.85a6.62,6.62,0,0,0,2.28-3.44,3.59,3.59,0,0,0,.14-1.39A4.11,4.11,0,0,0,14.2,1.41a4.06,4.06,0,0,0-3.7,2.27L9.82,5.14,9.15,3.68A3.94,3.94,0,0,0,5.55,1.41ZM9.81,3.33v0l0,0,0,0Z"/></g></g></svg>